<svg xmlns="http://www.w3.org/2000/svg" width="73" height="73" viewBox="0 0 73 73" fill="none">
  <path d="M21.2917 38.0207L25.8542 28.8957M25.8542 28.8957H48.6667M25.8542 28.8957L31.9375 50.1873L48.6667 28.8957M25.8542 28.8957L22.8125 21.2915M48.6667 28.8957L51.7083 38.0207M48.6667 28.8957L47.1458 25.854L56.2708 24.3332V28.8957M27.375 47.1457C27.375 53.0252 22.6087 57.7915 16.7292 57.7915C10.8496 57.7915 6.08334 53.0252 6.08334 47.1457C6.08334 41.2661 10.8496 36.4998 16.7292 36.4998C22.6087 36.4998 27.375 41.2661 27.375 47.1457Z" stroke="white" strokeWidth="3.65" strokeLinejoin="round"/>
  <path d="M56.2708 57.7917C62.1504 57.7917 66.9167 53.0254 66.9167 47.1458C66.9167 41.2663 62.1504 36.5 56.2708 36.5C50.3913 36.5 45.625 41.2663 45.625 47.1458C45.625 53.0254 50.3913 57.7917 56.2708 57.7917Z" stroke="white" strokeWidth="3.65"/>
  <path d="M21.2917 21.2915H28.8958" stroke="white" strokeWidth="3.04167" strokeLinecap="round"/>
</svg>