<?xml version="1.0" encoding="UTF-8" standalone="no"?>
<!-- Created with Inkscape (http://www.inkscape.org/) -->

<svg
   width="1440"
   height="342"
   viewBox="0 0 381.00006 90.487514"
   version="1.1"
   id="svg1"
   inkscape:version="1.3.2 (091e20e, 2023-11-25, custom)"
   sodipodi:docname="transition-blurb.svg"
   xmlns:inkscape="http://www.inkscape.org/namespaces/inkscape"
   xmlns:sodipodi="http://sodipodi.sourceforge.net/DTD/sodipodi-0.dtd"
   xmlns="http://www.w3.org/2000/svg"
   xmlns:svg="http://www.w3.org/2000/svg">
  <sodipodi:namedview
     id="namedview1"
     pagecolor="#ffffff"
     bordercolor="#000000"
     borderopacity="0.25"
     inkscape:showpageshadow="2"
     inkscape:pageopacity="0.0"
     inkscape:pagecheckerboard="0"
     inkscape:deskcolor="#d1d1d1"
     inkscape:document-units="mm"
     inkscape:zoom="1.4142136"
     inkscape:cx="739.28014"
     inkscape:cy="111.36932"
     inkscape:window-width="2560"
     inkscape:window-height="1377"
     inkscape:window-x="-8"
     inkscape:window-y="-8"
     inkscape:window-maximized="1"
     inkscape:current-layer="layer1" />
  <defs
     id="defs1">
    <inkscape:path-effect
       effect="bspline"
       id="path-effect6"
       is_visible="true"
       lpeversion="1.3"
       weight="33.333333"
       steps="2"
       helper_size="0"
       apply_no_weight="true"
       apply_with_weight="true"
       only_selected="false"
       uniform="false" />
    <inkscape:path-effect
       effect="bspline"
       id="path-effect5"
       is_visible="true"
       lpeversion="1.3"
       weight="33.333333"
       steps="2"
       helper_size="0"
       apply_no_weight="true"
       apply_with_weight="true"
       only_selected="false"
       uniform="false" />
    <inkscape:path-effect
       effect="bspline"
       id="path-effect4"
       is_visible="true"
       lpeversion="1.3"
       weight="33.333333"
       steps="2"
       helper_size="0"
       apply_no_weight="true"
       apply_with_weight="true"
       only_selected="false"
       uniform="false" />
    <inkscape:path-effect
       effect="bspline"
       id="path-effect3"
       is_visible="true"
       lpeversion="1.3"
       weight="33.333333"
       steps="2"
       helper_size="0"
       apply_no_weight="true"
       apply_with_weight="true"
       only_selected="false"
       uniform="false" />
    <inkscape:path-effect
       effect="bspline"
       id="path-effect2"
       is_visible="true"
       lpeversion="1.3"
       weight="33.333333"
       steps="2"
       helper_size="0"
       apply_no_weight="true"
       apply_with_weight="true"
       only_selected="false"
       uniform="false" />
    <inkscape:path-effect
       effect="bspline"
       id="path-effect1"
       is_visible="true"
       lpeversion="1.3"
       weight="33.333333"
       steps="2"
       helper_size="0"
       apply_no_weight="true"
       apply_with_weight="true"
       only_selected="false"
       uniform="false" />
  </defs>
  <g
     inkscape:label="Layer 1"
     inkscape:groupmode="layer"
     id="layer1">
    <path
       style="fill:#ff8965;fill-opacity:1;stroke:none;stroke-width:0.265093;stroke-dasharray:0.265093, 0.265093;stroke-dashoffset:0;stroke-opacity:0.99"
       d="m 0,46.602258 c 63.666741,18.609652 148.22021,2.011854 187.47716,-1.508891 23.16352,-2.077411 64.92498,-1.760374 97.89077,2.263336 27.82676,3.396457 67.94475,7.795936 67.94475,7.795936 25.91967,2.263336 28.06114,-4.295487 27.68119,-11.065201 C 380.74832,39.712376 375.08016,5.3592352 359.72966,4.7305338 344.8609,4.121561 337.39637,15.643645 290.98672,12.987576 259.59427,11.190957 248.51781,3.099995 238.05825,1.5826692 206.85401,-2.9440036 148.27375,4.1843039 130.85655,8.502761 91.650353,18.223622 49.254103,20.196666 29.946016,7.7483156 5.2052237,-8.2026199 0,46.602258 0,46.602258 Z"
       id="path7"
       sodipodi:nodetypes="csscssssssc" />
    <path
       style="fill:#474973;fill-opacity:1;stroke:none;stroke-width:0.265015;stroke-dasharray:0.265015, 0.265015;stroke-opacity:0.99"
       d="m 0,46.585078 c 0.98689587,33.65076 6.1901188,45.871385 43.035678,40.130518 58.563152,-9.124662 53.216741,13.143795 108.244082,-0.935444 72.84528,-18.638119 71.77477,5.322628 99.09307,4.761362 27.3183,-0.561266 9.30961,-35.019574 77.54033,-3.171108 25.93667,12.10662 42.39203,-15.742851 48.69579,-25.490829 4.77834,-7.389114 4.39053,-14.168776 4.39013,-15.758087 -3.5e-4,-1.371474 -56.82714,-14.263528 -72.82623,-14.222874 -73.62842,0.18709 -103.28561,15.247727 -157.73509,12.06722 C 96.754947,40.830112 80.645116,31.430896 44.906793,34.985581 9.1684702,38.540266 0,46.585078 0,46.585078 Z"
       id="path8"
       sodipodi:nodetypes="csssssssssc" />
  </g>
</svg>
